<svg width="159" height="58" viewBox="0 0 159 58" fill="none" xmlns="http://www.w3.org/2000/svg">
<g clip-path="url(#clip0_9_25586)">
<mask id="mask0_9_25586" style="mask-type:luminance" maskUnits="userSpaceOnUse" x="0" y="0" width="159" height="58">
<path d="M0 1.66479e-06H159V58H0V1.66479e-06Z" fill="white"/>
</mask>
<g mask="url(#mask0_9_25586)">
<path d="M70.5814 33.0608C74.0771 33.0608 75.5029 31.3108 75.5029 29.7058C75.5029 26.4933 72.3648 25.3268 69.3685 25.3268C66.8005 25.3268 64.0184 26.6411 62.4495 29.1936C64.3036 30.9464 67.7282 33.0608 70.5814 33.0608ZM71.7944 53.6368C61.2366 53.6368 52.9612 48.455 52.9612 34.2273C52.9612 23.9409 60.1668 16.5709 70.5814 16.5709C79.4269 16.5709 83.9924 22.4099 83.9924 28.8296C83.9924 34.0082 80.2826 39.8472 71.2229 39.8472C66.3722 39.8472 63.2341 37.8754 61.2366 35.8323C61.8791 42.6188 65.6586 44.5882 72.9352 44.5882C76.2164 44.5882 84.777 42.2547 84.777 42.2547L84.4918 51.1556C84.4918 51.1556 77.7856 53.6368 71.7944 53.6368Z" fill="#E1D9CE"/>
<path d="M116.597 16.8667L116.265 21.7387V53.3571H108.945L108.892 53.2757L97.2642 30.9222V53.3571H88.3821L88.7149 48.4847L88.7019 16.8667H96.0486L107.703 37.9771V16.8667H116.597Z" fill="#E1D9CE"/>
<path d="M139.527 44.8071C145.376 44.8812 150.156 41.8165 150.156 34.1563C150.156 28.4651 145.875 25.3267 138.884 25.3267C131.965 25.3267 127.828 28.6104 127.828 34.1563C127.828 42.3996 132.82 44.7358 139.527 44.8071ZM138.955 53.6367C131.037 53.6367 118.983 49.8408 118.983 34.2276C118.91 23.9408 126.187 16.5708 138.955 16.5708C150.726 16.5708 159 23.0646 159 34.2276C159 49.9149 147.088 53.6367 138.955 53.6367Z" fill="#E1D9CE"/>
<path d="M9.19248 58L3.75737 52.0925L25.3197 31.3423L5.68216 33.335C3.47487 33.5593 1.37433 32.3152 0.464962 30.2456C-0.466498 28.1257 0.031187 25.6341 1.70102 24.0576L23.2303 3.7319L26.7362 1.66479e-06L32.1509 6.34767L12.9785 24.4477L32.3631 22.4804C34.6146 22.252 36.7583 23.5141 37.6955 25.6202C38.6175 27.6921 38.1476 30.1347 36.5268 31.6945L9.19248 58Z" fill="#E1D9CE"/>
<path d="M51.5835 46.2609C49.2303 46.8022 49.0726 45.5582 49.0726 44.2066V8.8515L49.2841 3.74304H40.5103V48.3151C40.5103 50.9371 42.3736 52.9131 44.809 53.4489C45.6769 53.6402 46.8266 53.6402 47.5666 53.6402C49.7862 53.6402 52.2967 52.7212 52.2967 52.7212L52.5081 46.039C52.5081 46.039 51.8133 46.208 51.5835 46.2609Z" fill="#E1D9CE"/>
</g>
</g>
<defs>
<clipPath id="clip0_9_25586">
<rect width="159" height="58" fill="white"/>
</clipPath>
</defs>
</svg>
