<svg width="137" height="50" viewBox="0 0 137 50" fill="none" xmlns="http://www.w3.org/2000/svg">
<g clip-path="url(#clip0_33_26489)">
<mask id="mask0_33_26489" style="mask-type:luminance" maskUnits="userSpaceOnUse" x="0" y="0" width="137" height="50">
<path d="M0 -2.79078e-07H137V50H0V-2.79078e-07Z" fill="white"/>
</mask>
<g mask="url(#mask0_33_26489)">
<path d="M60.8154 28.5007C63.8274 28.5007 65.0559 26.992 65.0559 25.6084C65.0559 22.8391 62.352 21.8334 59.7703 21.8334C57.5577 21.8334 55.1605 22.9665 53.8087 25.1669C55.4062 26.6779 58.357 28.5007 60.8154 28.5007ZM61.8605 46.2386C52.7636 46.2386 45.6332 41.7715 45.6332 29.5063C45.6332 20.6387 51.8418 14.2853 60.8154 14.2853C68.437 14.2853 72.3708 19.3189 72.3708 24.8531C72.3708 29.3175 69.1743 34.3511 61.3682 34.3511C57.1886 34.3511 54.4847 32.6512 52.7636 30.8899C53.3172 36.7403 56.5738 38.4381 62.8436 38.4381C65.6707 38.4381 73.0469 36.4265 73.0469 36.4265L72.8011 44.0996C72.8011 44.0996 67.0228 46.2386 61.8605 46.2386Z" fill="#FE5000"/>
<path d="M100.464 14.5402L100.178 18.7402V45.9975H93.8707L93.8253 45.9273L83.8063 26.6571V45.9975H76.1531L76.4398 41.7971L76.4287 14.5402H82.7588L92.8007 32.7389V14.5402H100.464Z" fill="#FE5000"/>
<path d="M120.221 38.6268C125.261 38.6907 129.379 36.0487 129.379 29.4451C129.379 24.5388 125.691 21.8334 119.667 21.8334C113.706 21.8334 110.141 24.6641 110.141 29.4451C110.141 36.5514 114.443 38.5654 120.221 38.6268ZM119.728 46.2385C112.906 46.2385 102.52 42.9662 102.52 29.5065C102.457 20.6386 108.727 14.2852 119.728 14.2852C129.871 14.2852 137 19.8832 137 29.5065C137 43.0301 126.736 46.2385 119.728 46.2385Z" fill="#FE5000"/>
<path d="M7.92058 50L3.2375 44.9073L21.8163 27.0192L4.89597 28.7371C2.99409 28.9304 1.18418 27.8579 0.400644 26.0738C-0.401936 24.2463 0.0268877 22.0983 1.46567 20.7393L20.0161 3.21715L23.0369 -7.90847e-06L27.7024 5.47212L11.1827 21.0756L27.8852 19.3796C29.8251 19.1827 31.6722 20.2708 32.4798 22.0863C33.2742 23.8725 32.8694 25.9782 31.4728 27.3229L7.92058 50Z" fill="#FE5000"/>
<path d="M44.4461 39.88C42.4186 40.3467 42.2827 39.2743 42.2827 38.1092V7.63059L42.4649 3.22675H34.9051V41.6509C34.9051 43.9113 36.5105 45.6147 38.609 46.0766C39.3568 46.2415 40.3474 46.2415 40.9851 46.2415C42.8975 46.2415 45.0606 45.4493 45.0606 45.4493L45.2428 39.6888C45.2428 39.6888 44.6441 39.8345 44.4461 39.88Z" fill="#FE5000"/>
</g>
</g>
<defs>
<clipPath id="clip0_33_26489">
<rect width="137" height="50" fill="white"/>
</clipPath>
</defs>
</svg>
